<svg id="visual" viewBox="0 0 540 960" width="540" height="960" xmlns="http://www.w3.org/2000/svg" xmlns:xlink="http://www.w3.org/1999/xlink" version="1.1"><path d="M0 145L30 145L30 481L60 481L60 443L90 443L90 289L120 289L120 155L150 155L150 222L180 222L180 251L210 251L210 289L240 289L240 347L270 347L270 251L300 251L300 423L330 423L330 500L360 500L360 164L390 164L390 222L420 222L420 347L450 347L450 299L480 299L480 251L510 251L510 183L540 183L540 299L540 0L540 0L510 0L510 0L480 0L480 0L450 0L450 0L420 0L420 0L390 0L390 0L360 0L360 0L330 0L330 0L300 0L300 0L270 0L270 0L240 0L240 0L210 0L210 0L180 0L180 0L150 0L150 0L120 0L120 0L90 0L90 0L60 0L60 0L30 0L30 0L0 0Z" fill="#dadada"></path><path d="M0 193L30 193L30 692L60 692L60 673L90 673L90 375L120 375L120 251L150 251L150 443L180 443L180 452L210 452L210 375L240 375L240 635L270 635L270 510L300 510L300 471L330 471L330 577L360 577L360 443L390 443L390 366L420 366L420 471L450 471L450 375L480 375L480 375L510 375L510 308L540 308L540 375L540 297L540 181L510 181L510 249L480 249L480 297L450 297L450 345L420 345L420 220L390 220L390 162L360 162L360 498L330 498L330 421L300 421L300 249L270 249L270 345L240 345L240 287L210 287L210 249L180 249L180 220L150 220L150 153L120 153L120 287L90 287L90 441L60 441L60 479L30 479L30 143L0 143Z" fill="#c1c1c1"></path><path d="M0 731L30 731L30 779L60 779L60 769L90 769L90 721L120 721L120 692L150 692L150 606L180 606L180 817L210 817L210 625L240 625L240 721L270 721L270 644L300 644L300 654L330 654L330 702L360 702L360 779L390 779L390 683L420 683L420 663L450 663L450 635L480 635L480 625L510 625L510 644L540 644L540 721L540 373L540 306L510 306L510 373L480 373L480 373L450 373L450 469L420 469L420 364L390 364L390 441L360 441L360 575L330 575L330 469L300 469L300 508L270 508L270 633L240 633L240 373L210 373L210 450L180 450L180 441L150 441L150 249L120 249L120 373L90 373L90 671L60 671L60 690L30 690L30 191L0 191Z" fill="#a8a8a8"></path><path d="M0 769L30 769L30 894L60 894L60 913L90 913L90 769L120 769L120 865L150 865L150 798L180 798L180 884L210 884L210 779L240 779L240 855L270 855L270 865L300 865L300 788L330 788L330 817L360 817L360 894L390 894L390 913L420 913L420 855L450 855L450 855L480 855L480 769L510 769L510 798L540 798L540 875L540 719L540 642L510 642L510 623L480 623L480 633L450 633L450 661L420 661L420 681L390 681L390 777L360 777L360 700L330 700L330 652L300 652L300 642L270 642L270 719L240 719L240 623L210 623L210 815L180 815L180 604L150 604L150 690L120 690L120 719L90 719L90 767L60 767L60 777L30 777L30 729L0 729Z" fill="#909090"></path><path d="M0 961L30 961L30 961L60 961L60 961L90 961L90 961L120 961L120 961L150 961L150 961L180 961L180 961L210 961L210 961L240 961L240 961L270 961L270 961L300 961L300 961L330 961L330 961L360 961L360 961L390 961L390 961L420 961L420 961L450 961L450 961L480 961L480 961L510 961L510 961L540 961L540 961L540 873L540 796L510 796L510 767L480 767L480 853L450 853L450 853L420 853L420 911L390 911L390 892L360 892L360 815L330 815L330 786L300 786L300 863L270 863L270 853L240 853L240 777L210 777L210 882L180 882L180 796L150 796L150 863L120 863L120 767L90 767L90 911L60 911L60 892L30 892L30 767L0 767Z" fill="#797979"></path></svg>