<svg id="visual" viewBox="0 0 540 960" width="540" height="960" xmlns="http://www.w3.org/2000/svg" xmlns:xlink="http://www.w3.org/1999/xlink" version="1.1"><rect x="0" y="0" width="540" height="960" fill="#3b3e40"></rect><defs><linearGradient id="grad1_0" x1="0%" y1="0%" x2="100%" y2="100%"><stop offset="30%" stop-color="#3b3e40" stop-opacity="1"></stop><stop offset="70%" stop-color="#3b3e40" stop-opacity="1"></stop></linearGradient></defs><defs><linearGradient id="grad2_0" x1="0%" y1="0%" x2="100%" y2="100%"><stop offset="30%" stop-color="#3b3e40" stop-opacity="1"></stop><stop offset="70%" stop-color="#3b3e40" stop-opacity="1"></stop></linearGradient></defs><g transform="translate(540, 0)"><path d="M0 214C-19.4 221.7 -38.9 229.4 -65 242.4C-91.1 255.5 -123.8 273.8 -159.5 276.3C-195.2 278.8 -233.9 265.4 -229.1 229.1C-224.3 192.8 -176.2 133.4 -186.2 107.5C-196.2 81.6 -264.4 89.2 -286.9 76.9C-309.4 64.5 -286.2 32.3 -263 0L0 0Z" fill="#fea02f"></path></g><g transform="translate(0, 960)"><path d="M0 -274C20.6 -263 41.2 -252.1 66.8 -249.2C92.3 -246.3 122.9 -251.5 137.5 -238.2C152.1 -224.8 150.9 -192.9 181.7 -181.7C212.5 -170.6 275.3 -180.2 277.1 -160C278.9 -139.8 219.7 -89.9 217.3 -58.2C215 -26.6 269.5 -13.3 324 0L0 0Z" fill="#fea02f"></path></g></svg>