<svg id="visual" viewBox="0 0 960 540" width="960" height="540" xmlns="http://www.w3.org/2000/svg" xmlns:xlink="http://www.w3.org/1999/xlink" version="1.1"><path d="M0 82L53 82L53 271L107 271L107 249L160 249L160 163L213 163L213 87L267 87L267 125L320 125L320 141L373 141L373 163L427 163L427 195L480 195L480 141L533 141L533 239L587 239L587 282L640 282L640 93L693 93L693 125L747 125L747 195L800 195L800 168L853 168L853 141L907 141L907 104L960 104L960 168L960 0L960 0L907 0L907 0L853 0L853 0L800 0L800 0L747 0L747 0L693 0L693 0L640 0L640 0L587 0L587 0L533 0L533 0L480 0L480 0L427 0L427 0L373 0L373 0L320 0L320 0L267 0L267 0L213 0L213 0L160 0L160 0L107 0L107 0L53 0L53 0L0 0Z" fill="#dadada"></path><path d="M0 109L53 109L53 390L107 390L107 379L160 379L160 212L213 212L213 141L267 141L267 249L320 249L320 255L373 255L373 212L427 212L427 357L480 357L480 287L533 287L533 266L587 266L587 325L640 325L640 249L693 249L693 206L747 206L747 266L800 266L800 212L853 212L853 212L907 212L907 174L960 174L960 212L960 166L960 102L907 102L907 139L853 139L853 166L800 166L800 193L747 193L747 123L693 123L693 91L640 91L640 280L587 280L587 237L533 237L533 139L480 139L480 193L427 193L427 161L373 161L373 139L320 139L320 123L267 123L267 85L213 85L213 161L160 161L160 247L107 247L107 269L53 269L53 80L0 80Z" fill="#c1c1c1"></path><path d="M0 411L53 411L53 438L107 438L107 433L160 433L160 406L213 406L213 390L267 390L267 341L320 341L320 460L373 460L373 352L427 352L427 406L480 406L480 363L533 363L533 368L587 368L587 395L640 395L640 438L693 438L693 384L747 384L747 374L800 374L800 357L853 357L853 352L907 352L907 363L960 363L960 406L960 210L960 172L907 172L907 210L853 210L853 210L800 210L800 264L747 264L747 204L693 204L693 247L640 247L640 323L587 323L587 264L533 264L533 285L480 285L480 355L427 355L427 210L373 210L373 253L320 253L320 247L267 247L267 139L213 139L213 210L160 210L160 377L107 377L107 388L53 388L53 107L0 107Z" fill="#a8a8a8"></path><path d="M0 433L53 433L53 503L107 503L107 514L160 514L160 433L213 433L213 487L267 487L267 449L320 449L320 498L373 498L373 438L427 438L427 482L480 482L480 487L533 487L533 444L587 444L587 460L640 460L640 503L693 503L693 514L747 514L747 482L800 482L800 482L853 482L853 433L907 433L907 449L960 449L960 492L960 404L960 361L907 361L907 350L853 350L853 355L800 355L800 372L747 372L747 382L693 382L693 436L640 436L640 393L587 393L587 366L533 366L533 361L480 361L480 404L427 404L427 350L373 350L373 458L320 458L320 339L267 339L267 388L213 388L213 404L160 404L160 431L107 431L107 436L53 436L53 409L0 409Z" fill="#909090"></path><path d="M0 541L53 541L53 541L107 541L107 541L160 541L160 541L213 541L213 541L267 541L267 541L320 541L320 541L373 541L373 541L427 541L427 541L480 541L480 541L533 541L533 541L587 541L587 541L640 541L640 541L693 541L693 541L747 541L747 541L800 541L800 541L853 541L853 541L907 541L907 541L960 541L960 541L960 490L960 447L907 447L907 431L853 431L853 480L800 480L800 480L747 480L747 512L693 512L693 501L640 501L640 458L587 458L587 442L533 442L533 485L480 485L480 480L427 480L427 436L373 436L373 496L320 496L320 447L267 447L267 485L213 485L213 431L160 431L160 512L107 512L107 501L53 501L53 431L0 431Z" fill="#797979"></path></svg>